# xmcd
#
# Track frame offsets:
#	150
#	15802
#	25000
#	50825
#	65427
#	86380
#	100425
#	112670
#	125772
#	138877
#	157262
#	169487
#	181645
#	192240
#	209190
#	220095
#
# Disc length: 3088
#
# Revision: 2
# Processed by: cddbd v1.5.1PL0 Copyright (c) Steve Scherf et al.
# Submitted via: audiograbber 1.80
# Normalized: r0:DSETVAR1,TDELIM( - ),TSWAP
#
DISCID=de0c0e10
DTITLE=Various Artist - BRAX
DYEAR=1900
DGENRE=
TTITLE0=Shirley Bassey - New York New York
TTITLE1=Ray Charles - Hit the Road Jack
TTITLE2=Barry White - America
TTITLE3=Sammy Davis Jr. - New York´s my home
TTITLE4=Frank Sinatra - My Way
TTITLE5=B.J.Thomas - Raindrops Keep Falling On My Head
TTITLE6=Bob Dylan - Blowing in the Wind
TTITLE7=Cat Stevens - New York Times
TTITLE8=Bee Gees - Spicks and Specks
TTITLE9=Shirley Bassey - New York State Of Mine
TTITLE10=Bing Crosby - Manhattan
TTITLE11=The Platters - The Great Pretender
TTITLE12=Louis Armstrong - What a wonderful World
TTITLE13=Harry Belafonte - Jump In The Line
TTITLE14=Paul Anka - Diana
TTITLE15=The Drifters - Save The Last Dance For Me
EXTD=
EXTT0=
EXTT1=
EXTT2=
EXTT3=
EXTT4=
EXTT5=
EXTT6=
EXTT7=
EXTT8=
EXTT9=
EXTT10=
EXTT11=
EXTT12=
EXTT13=
EXTT14=
EXTT15=
PLAYORDER=
